<svg width="30" height="26" viewBox="0 0 30 26" fill="none" xmlns="http://www.w3.org/2000/svg">
<path d="M26.8278 5.50579C26.8275 6.62521 26.4682 7.71502 25.8027 8.61513C25.1371 9.51524 24.2005 10.1782 23.1303 10.5066C23.3754 9.70795 23.4996 8.87709 23.4987 8.04164C23.4988 6.57006 23.1162 5.12374 22.3885 3.84468C21.6607 2.56562 20.6129 1.49778 19.3478 0.745988C20.0492 0.420407 20.813 0.251171 21.5862 0.25C22.9781 0.252429 24.312 0.807393 25.2949 1.79292C26.2778 2.77846 26.8292 4.11391 26.8278 5.50579ZM25.7653 12.0084C25.1702 11.8417 24.5333 11.9181 23.9945 12.2209C23.3888 12.5568 22.7165 12.755 22.0254 12.8016C21.7393 13.2377 21.4068 13.6415 21.0337 14.0059C22.372 14.4463 23.5635 15.2462 24.478 16.318C25.3924 17.3899 25.9946 18.6925 26.2187 20.0835H27.1962C27.5102 20.0879 27.8194 20.0072 28.0913 19.8501C28.3632 19.693 28.5874 19.4653 28.7404 19.1911C29.0217 18.6636 29.1677 18.0745 29.1654 17.4766V16.4708C29.1653 14.3599 27.7629 12.5324 25.7653 12.0084ZM10.6496 0.745988C9.9482 0.420407 9.18445 0.251171 8.4112 0.25C7.15605 0.250871 5.94282 0.701815 4.9918 1.52095C4.04078 2.34009 3.41504 3.47311 3.22819 4.71428C3.04134 5.95545 3.30577 7.22247 3.97347 8.2853C4.64116 9.34812 5.66786 10.1363 6.86712 10.5066C6.62204 9.70796 6.49786 8.87709 6.4987 8.04164C6.49863 6.57006 6.88123 5.12374 7.60895 3.84468C8.33667 2.56562 9.38449 1.49778 10.6496 0.745988ZM8.9637 14.0058C8.59062 13.6413 8.25811 13.2375 7.97199 12.8014C7.28094 12.7549 6.60864 12.5567 6.00291 12.2208C5.46414 11.918 4.82717 11.8415 4.23206 12.0083C2.23449 12.5322 0.832057 14.3598 0.832057 16.4708V17.4765C0.829784 18.0744 0.975809 18.6634 1.25706 19.191C1.40837 19.4635 1.63033 19.6902 1.89959 19.8472C2.16884 20.0043 2.47543 20.0858 2.78712 20.0834H3.7787C4.00279 18.6924 4.60497 17.3897 5.51942 16.3179C6.43386 15.246 7.62537 14.4462 8.9637 14.0058ZM20.0704 15.9326C19.8247 15.8708 19.5728 15.8375 19.3195 15.8334C18.8282 15.8344 18.3454 15.9612 17.9171 16.2017C17.0232 16.6943 16.0193 16.9526 14.9987 16.9526C13.9781 16.9526 12.9742 16.6943 12.0803 16.2017C11.652 15.9612 11.1692 15.8344 10.6779 15.8334C10.4246 15.8375 10.1727 15.8708 9.92699 15.9326C8.73642 16.2554 7.68566 16.9621 6.93771 17.9431C6.18977 18.924 5.78646 20.1244 5.79035 21.358V22.5906C5.79081 23.3128 5.97096 24.0236 6.31456 24.6589C6.6687 25.3388 7.37706 25.7497 8.17035 25.7497H21.8271C22.6203 25.7497 23.3287 25.3388 23.6828 24.6589C24.0264 24.0236 24.2066 23.3128 24.2071 22.5906V21.3582C24.211 20.1246 23.8077 18.9242 23.0598 17.9432C22.3118 16.9622 21.261 16.2554 20.0704 15.9326ZM21.3737 8.04164C21.3737 6.78079 20.9998 5.54825 20.2993 4.49988C19.5988 3.45152 18.6032 2.63442 17.4383 2.15191C16.2734 1.6694 14.9916 1.54316 13.755 1.78914C12.5184 2.03512 11.3825 2.64228 10.4909 3.53384C9.59934 4.4254 8.99218 5.56131 8.7462 6.79794C8.50022 8.03457 8.62646 9.31637 9.10897 10.4813C9.59148 11.6461 10.4086 12.6418 11.4569 13.3423C12.5053 14.0428 13.7378 14.4166 14.9987 14.4166C16.6895 14.4166 18.311 13.745 19.5065 12.5495C20.7021 11.3539 21.3737 9.7324 21.3737 8.04164Z" fill="url(#paint0_linear_964_1954)"/>
<defs>
<linearGradient id="paint0_linear_964_1954" x1="14.9987" y1="25.7498" x2="14.9987" y2="0.250076" gradientUnits="userSpaceOnUse">
<stop stop-color="#FD3A84"/>
<stop offset="1" stop-color="#FFA68D"/>
</linearGradient>
</defs>
</svg>
