<svg width="49" height="49" viewBox="0 0 49 49" fill="none" xmlns="http://www.w3.org/2000/svg">
<path d="M44.0089 38.3119C43.936 38.6349 43.8631 38.9682 43.7797 39.2911C42.936 42.6244 39.9777 44.9473 36.5402 44.9473C28.1965 44.9473 19.8528 44.9473 11.4987 44.9473C7.72794 44.9473 4.59255 42.2077 4.07172 38.4682C3.48839 34.2703 6.53003 30.4266 10.7696 30.0203C11.0821 29.9891 11.3946 29.9683 11.7071 29.9683C19.9049 29.9683 28.1132 29.9683 36.311 29.9683C39.7485 29.9683 42.6131 31.9995 43.6443 35.1661C43.7901 35.6349 43.8839 36.114 44.0089 36.5932C44.0089 37.1661 44.0089 37.739 44.0089 38.3119ZM13.9883 39.114C14.9154 39.114 15.655 38.3953 15.655 37.4786C15.655 36.562 14.9258 35.812 14.0091 35.812C13.0925 35.812 12.3529 36.5411 12.3529 37.4578C12.3425 38.3953 13.0508 39.1036 13.9883 39.114ZM20.6758 39.114C21.6028 39.114 22.332 38.3849 22.3216 37.4578C22.3216 36.5307 21.582 35.8015 20.6653 35.8015C19.7487 35.8015 19.0091 36.5515 19.0091 37.4682C19.0091 38.3849 19.7591 39.114 20.6758 39.114ZM27.3424 39.114C28.2694 39.114 29.009 38.3849 29.009 37.4682C29.009 36.562 28.259 35.812 27.3528 35.8015C26.4361 35.8015 25.6965 36.5307 25.6965 37.4578C25.6965 38.3953 26.4153 39.114 27.3424 39.114ZM35.6756 37.4474C35.6756 36.5203 34.9361 35.7911 34.009 35.8015C33.0923 35.812 32.3632 36.5515 32.3632 37.4682C32.3632 38.3849 33.1027 39.114 34.0298 39.1036C34.9673 39.1036 35.6756 38.3849 35.6756 37.4474Z" fill="#344A60"/>
<path d="M24.7171 4.94727C25.0609 5.05143 25.415 5.13476 25.7484 5.25976C27.6546 5.95767 28.9775 7.81183 28.9983 9.84306C29.0088 10.6972 28.9983 11.5514 28.9983 12.4576C29.3108 12.4576 29.5921 12.4472 29.8838 12.4576C30.7587 12.4785 31.4879 13.1659 31.4983 14.0409C31.5192 16.1451 31.5712 18.2597 31.4879 20.3638C31.3421 24.0096 28.4671 26.9888 24.8317 27.3846C20.4047 27.8637 16.5505 24.4263 16.5193 19.9784C16.5089 18.0617 16.5193 16.1555 16.5193 14.2389C16.5193 13.1451 17.2068 12.468 18.3005 12.4576C18.5193 12.4576 18.738 12.4576 19.0193 12.4576C19.0193 12.2805 19.0088 12.1139 19.0193 11.9576C19.0609 10.916 18.9672 9.85348 19.1755 8.85348C19.6234 6.74933 21.0297 5.48893 23.1338 5.0306C23.1963 5.02018 23.2484 4.97852 23.3109 4.95768C23.7796 4.94727 24.2484 4.94727 24.7171 4.94727ZM25.6755 12.4368C25.6755 11.4993 25.7171 10.6035 25.665 9.70764C25.613 8.8639 24.863 8.23891 24.0296 8.22849C23.1859 8.21807 22.4463 8.8639 22.363 9.71806C22.3109 10.2285 22.3317 10.7597 22.3317 11.2701C22.3317 11.6555 22.3317 12.041 22.3317 12.4264C23.4776 12.4368 24.5609 12.4368 25.6755 12.4368Z" fill="#344A60"/>
</svg>
