<svg width="37" height="41" viewBox="0 0 37 41" fill="none" xmlns="http://www.w3.org/2000/svg">
<path d="M22.2018 0.647461C22.8684 0.918278 23.1184 1.41825 23.0767 2.12654C23.0455 2.84525 23.0767 3.55354 23.0663 4.27224C23.0559 5.00137 22.5663 5.50133 21.8893 5.49092C21.2122 5.4805 20.7331 4.97012 20.7227 4.25141C20.7227 3.56395 20.7539 2.86608 20.7123 2.18904C20.6706 1.47033 20.9206 0.959942 21.5768 0.647461C21.7851 0.647461 21.9934 0.647461 22.2018 0.647461Z" fill="#344A60"/>
<path d="M15.7957 4.38696C15.9623 4.49112 16.2957 4.61612 16.5352 4.84527C17.2227 5.48065 17.8685 6.15769 18.5351 6.82431C23.1598 11.449 27.7741 16.0633 32.3988 20.6881C32.4613 20.7506 32.5238 20.813 32.5967 20.886C33.4509 21.7401 33.2946 22.5734 32.1905 23.0942C30.4094 23.9379 28.6178 24.7816 26.8367 25.6148C21.7641 28.0001 16.681 30.3854 11.6188 32.7811C11.3793 32.8957 11.2439 32.8852 11.0564 32.6873C8.99401 30.6041 6.92122 28.5417 4.84843 26.4794C4.67135 26.3023 4.64011 26.1773 4.74427 25.9482C8.00449 19.0423 11.2543 12.1365 14.5041 5.22025C14.7228 4.72028 15.0666 4.42863 15.7957 4.38696Z" fill="#344A60"/>
<path d="M13.067 34.6554C15.2023 33.6554 17.3168 32.6555 19.4312 31.666C19.9624 31.416 20.4937 31.1764 21.0145 30.916C21.2019 30.8223 21.3165 30.8119 21.4832 30.9785C22.5456 32.0514 23.6185 33.1138 24.6809 34.1867C25.2225 34.7387 25.2225 35.4053 24.6809 35.947C23.2539 37.3844 21.8165 38.8218 20.3687 40.2488C19.8479 40.7696 19.1708 40.78 18.6604 40.28C16.8272 38.4676 15.0148 36.6344 13.192 34.8116C13.1503 34.7804 13.1191 34.7283 13.067 34.6554Z" fill="#344A60"/>
<path d="M2.9216 27.9377C5.15063 30.1668 7.36925 32.375 9.58786 34.5936C8.94207 35.2498 8.29628 35.9373 7.60882 36.5831C7.16093 37.0101 6.4943 36.9893 6.05683 36.5518C4.35901 34.8644 2.6612 33.177 0.973802 31.4688C0.536329 31.0209 0.525914 30.3543 0.942555 29.9168C1.57793 29.2397 2.26539 28.5835 2.9216 27.9377Z" fill="#344A60"/>
<path d="M33.1177 5.76172C33.0448 5.89713 32.951 6.20961 32.7427 6.41793C31.9407 7.26163 31.1178 8.07408 30.2949 8.88653C29.7845 9.3865 29.0346 9.37608 28.5867 8.89694C28.1388 8.42822 28.1492 7.70952 28.6388 7.20955C29.4512 6.38668 30.2741 5.56381 31.097 4.75136C31.4824 4.37639 31.9615 4.29306 32.4302 4.49096C32.8469 4.69928 33.1281 5.14717 33.1177 5.76172Z" fill="#344A60"/>
<path d="M34.43 16.8023C34.0237 16.8023 33.6279 16.8128 33.2217 16.8023C32.5343 16.7815 32.0239 16.2815 32.0239 15.6253C32.0239 14.9795 32.503 14.4692 33.18 14.4587C34.0237 14.4379 34.8674 14.4379 35.7111 14.4587C36.3882 14.4796 36.8673 14.9795 36.8673 15.6253C36.8673 16.2711 36.3465 16.7815 35.6695 16.8023C35.2633 16.8128 34.8466 16.8023 34.43 16.8023Z" fill="#344A60"/>
</svg>
