<svg width="16" height="16" viewBox="0 0 16 16" fill="none" xmlns="http://www.w3.org/2000/svg">
<g clip-path="url(#clip0_963_952)">
<path d="M8 0C3.58873 0 0 3.58873 0 8C0 12.4113 3.58873 16 8 16C12.4113 16 16 12.4113 16 8C16 3.58873 12.4113 0 8 0ZM8 14.2514C4.55291 14.2514 1.74863 11.4471 1.74863 8C1.74863 4.55308 4.55291 1.74863 8 1.74863C11.4471 1.74863 14.2514 4.55308 14.2514 8C14.2514 11.4471 11.4471 14.2514 8 14.2514Z" fill="#4F4F4F"/>
<path d="M8.69133 8.0096V4.65662C8.69133 4.28224 8.38795 3.97886 8.0137 3.97886C7.63935 3.97886 7.33594 4.28224 7.33594 4.65662V8.22612C7.33594 8.23678 7.33857 8.24678 7.33908 8.25744C7.33017 8.44173 7.39365 8.62885 7.5344 8.76963L10.0586 11.2936C10.3233 11.5584 10.7524 11.5584 11.017 11.2936C11.2816 11.0289 11.2817 10.5997 11.017 10.3352L8.69133 8.0096Z" fill="#4F4F4F"/>
</g>
<defs>
<clipPath id="clip0_963_952">
<rect width="16" height="16" fill="white"/>
</clipPath>
</defs>
</svg>
