<svg width="19" height="19" viewBox="0 0 19 19" fill="none" xmlns="http://www.w3.org/2000/svg">
<path fill-rule="evenodd" clip-rule="evenodd" d="M0 9.16667C0 4.10405 4.10405 0 9.16667 0C10.6285 0 12.0128 0.342842 13.2412 0.953342C13.6946 1.17864 13.8795 1.72881 13.6542 2.18217C13.4289 2.63554 12.8787 2.82042 12.4254 2.59511C11.4448 2.10778 10.3391 1.83333 9.16667 1.83333C5.11658 1.83333 1.83333 5.11658 1.83333 9.16667C1.83333 13.2168 5.11658 16.5 9.16667 16.5C13.2168 16.5 16.5 13.2168 16.5 9.16667C16.5 8.89057 16.4848 8.61832 16.4552 8.35074C16.3995 7.84749 16.7624 7.39447 17.2656 7.33892C17.7688 7.28326 18.2218 7.6461 18.2774 8.14926C18.3144 8.48366 18.3333 8.8231 18.3333 9.16667C18.3333 14.2292 14.2292 18.3333 9.16667 18.3333C4.10405 18.3333 0 14.2292 0 9.16667ZM18.0648 2.10182C18.4228 2.4598 18.4228 3.0402 18.0648 3.39818L9.81484 11.6482C9.45688 12.0061 8.87645 12.0061 8.51849 11.6482L5.76848 8.89817C5.41051 8.54022 5.41051 7.95978 5.76848 7.60182C6.12647 7.24384 6.70686 7.24384 7.06485 7.60182L9.16667 9.70365L16.7685 2.10182C17.1264 1.74384 17.7069 1.74384 18.0648 2.10182Z" fill="white"/>
</svg>
