<svg width="40" height="41" viewBox="0 0 40 41" fill="none" xmlns="http://www.w3.org/2000/svg">
<path d="M14.07 0.947266C14.8747 0.947266 15.6872 0.947266 16.4919 0.947266C17.0544 1.0332 17.6169 1.10351 18.1715 1.21289C26.6792 2.90035 32.0853 11.1971 30.1635 19.6266C27.9057 29.5561 16.6872 34.5326 7.79673 29.5561C7.63267 29.4624 7.37486 29.4389 7.18736 29.4858C5.46865 29.9467 3.75774 30.4233 2.04683 30.8998C1.40622 31.0795 0.757795 31.2514 0.0703083 31.4389C0.101558 31.2983 0.117181 31.2201 0.132806 31.1498C0.757794 28.8999 1.37497 26.6499 1.99996 24.4C2.07808 24.1265 2.06246 23.9 1.92184 23.6343C1.21091 22.3844 0.687487 21.0563 0.390618 19.65C0.234371 18.9157 0.124998 18.1735 0 17.4313C0 16.6267 0 15.8142 0 15.0095C0.0781235 14.5251 0.156247 14.0408 0.234371 13.5564C1.2031 7.66589 5.99207 2.60348 11.8201 1.3457C12.5701 1.18164 13.3201 1.08008 14.07 0.947266ZM16.4372 19.7594C16.4372 19.275 16.4528 18.8219 16.4294 18.3688C16.4138 18.0876 16.4997 17.8844 16.7184 17.697C17.3122 17.1891 17.8825 16.6579 18.445 16.1189C19.6246 15.0017 20.1168 13.6189 19.9059 12.0174C19.6246 9.86116 17.9528 8.27525 15.6872 8.01745C13.8982 7.81432 11.8592 8.79868 10.9842 10.8221C10.7342 11.4002 10.5623 12.0096 10.6326 12.6658C11.406 12.6658 12.1482 12.6658 12.8982 12.6658C12.9216 12.5095 12.9451 12.3689 12.9685 12.2361C13.1873 10.9783 14.4997 10.0955 15.7341 10.3846C16.6481 10.5955 17.2653 11.1502 17.5231 12.0486C17.7809 12.9705 17.5309 13.7752 16.8434 14.4314C16.0153 15.2048 15.1716 15.9626 14.3435 16.736C14.2497 16.8298 14.1325 16.9626 14.1247 17.0798C14.1091 17.9704 14.1169 18.8688 14.1169 19.7828C14.906 19.7594 15.6403 19.7594 16.4372 19.7594ZM16.4059 24.4468C16.4059 23.65 16.4059 22.9 16.4059 22.1344C15.6403 22.1344 14.906 22.1344 14.156 22.1344C14.156 22.9156 14.156 23.6656 14.156 24.4468C14.9138 24.4468 15.6481 24.4468 16.4059 24.4468Z" fill="#344A60"/>
<path d="M15.5388 33.8373C20.2887 33.6811 24.3668 32.0014 27.7105 28.6655C31.0542 25.3297 32.7338 21.2438 32.8979 16.3923C33.6557 16.8923 34.3744 17.2986 35.015 17.8142C38.5228 20.6501 40.1868 24.3453 39.9837 28.853C39.8977 30.7593 39.3431 32.5561 38.4134 34.2279C38.2728 34.4857 38.2415 34.7045 38.3196 34.9857C38.8665 36.9232 39.3977 38.8607 39.9446 40.845C39.8274 40.8294 39.7493 40.8294 39.6712 40.8137C37.8353 40.3059 35.9916 39.806 34.1557 39.2825C33.8197 39.1888 33.5619 39.2044 33.2416 39.3763C26.9995 42.7825 19.1325 40.4622 15.7263 34.2279C15.6716 34.1108 15.6169 34.0014 15.5388 33.8373Z" fill="#344A60"/>
</svg>
