<svg width="20" height="20" viewBox="0 0 20 20" fill="none" xmlns="http://www.w3.org/2000/svg">
<path d="M4.375 9.375H16.875C17.0408 9.375 17.1997 9.44085 17.3169 9.55806C17.4342 9.67527 17.5 9.83424 17.5 10C17.5 10.1658 17.4342 10.3247 17.3169 10.4419C17.1997 10.5592 17.0408 10.625 16.875 10.625H4.375C4.20924 10.625 4.05027 10.5592 3.93306 10.4419C3.81585 10.3247 3.75 10.1658 3.75 10C3.75 9.83424 3.81585 9.67527 3.93306 9.55806C4.05027 9.44085 4.20924 9.375 4.375 9.375Z" fill="black"/>
<path d="M4.63375 9.99981L9.8175 15.1823C9.93486 15.2997 10.0008 15.4588 10.0008 15.6248C10.0008 15.7908 9.93486 15.95 9.8175 16.0673C9.70014 16.1847 9.54097 16.2506 9.375 16.2506C9.20903 16.2506 9.04986 16.1847 8.9325 16.0673L3.3075 10.4423C3.2493 10.3843 3.20312 10.3153 3.17161 10.2394C3.1401 10.1634 3.12389 10.082 3.12389 9.99981C3.12389 9.9176 3.1401 9.8362 3.17161 9.76027C3.20312 9.68434 3.2493 9.61537 3.3075 9.55731L8.9325 3.93231C9.04986 3.81495 9.20903 3.74902 9.375 3.74902C9.54097 3.74902 9.70014 3.81495 9.8175 3.93231C9.93486 4.04967 10.0008 4.20884 10.0008 4.37481C10.0008 4.54078 9.93486 4.69995 9.8175 4.81731L4.63375 9.99981Z" fill="black"/>
</svg>
