<svg width="159" height="33" viewBox="0 0 159 33" fill="none" xmlns="http://www.w3.org/2000/svg">
<g clip-path="url(#clip0_301_840)">
<path d="M50.3849 32.5198C49.1211 32.6629 47.8573 32.7583 46.5935 32.5198C44.9006 32.2098 43.4698 31.3991 42.3014 30.1592C41.753 29.5869 41.2284 28.9669 40.7754 28.3231C39.1777 26.034 37.6278 23.7449 36.0302 21.4557C35.291 20.4066 34.4326 19.4528 33.4073 18.6897C32.835 18.2605 32.2388 17.8551 31.5235 17.6405C32.1196 17.5929 32.7158 17.569 33.3119 17.4736C34.1465 17.3544 35.0049 17.2352 35.8394 17.0206C38.9155 16.2814 40.6561 13.9446 40.8231 10.8924C40.9184 9.10403 40.7277 7.3395 40.0362 5.67035C39.1777 3.57199 37.5801 2.45127 35.3387 2.3082C33.5265 2.21282 31.7143 2.23667 29.902 2.18898C29.7828 2.18898 29.6397 2.21282 29.449 2.21282C29.4251 2.47512 29.4013 2.71357 29.4013 2.95202C29.4013 8.24561 29.4013 13.5154 29.4013 18.8089C29.4013 22.2903 29.4013 25.7955 29.4013 29.2769C29.4013 29.5154 29.4013 29.7777 29.4013 30.0161C29.449 30.9222 29.5205 31.8522 30.2597 32.5914C28.7813 32.5914 27.3745 32.5914 25.9199 32.5914C26.7545 31.6376 26.826 30.4692 26.826 29.3246C26.826 21.1458 26.826 12.9669 26.826 4.78808C26.826 4.19196 26.7307 3.61968 26.6591 3.02355C26.5876 2.5705 26.3968 2.14129 26.0153 1.85515C26.0391 1.8313 26.063 1.78361 26.0868 1.78361C29.2105 1.75977 32.3342 1.75977 35.4579 1.75977C36.674 1.75977 37.8424 2.02206 38.9631 2.49896C41.443 3.57199 42.826 5.52728 43.2791 8.15023C43.5175 9.53324 43.4937 10.9162 43.2076 12.2993C42.9214 13.6346 42.3014 14.803 41.443 15.8522C40.37 17.1398 38.9393 17.8075 37.3655 18.2128C37.0317 18.3082 36.6979 18.3797 36.3163 18.4751C36.6979 18.8089 37.0317 19.0712 37.3417 19.3574C38.3909 20.335 39.1062 21.5511 39.8454 22.7434C40.5608 23.8879 41.2046 25.0802 41.8961 26.2486C42.826 27.8224 43.9468 29.2292 45.2582 30.493C46.522 31.7091 48.0481 32.3052 49.7888 32.4483C49.9795 32.4721 50.1941 32.496 50.3849 32.5198Z" fill="#F9CEB8"/>
<path d="M99.8389 1.78418C100.077 1.78418 100.173 1.78418 100.292 1.78418C103.392 1.78418 106.515 1.78418 109.615 1.78418C113.359 1.78418 116.673 3.02412 119.535 5.43247C122.086 7.57852 123.612 10.3445 124.256 13.5875C124.852 16.6158 124.781 19.6202 123.827 22.577C122.492 26.7022 119.726 29.5875 115.791 31.3758C113.979 32.2104 112.071 32.6396 110.092 32.6396C106.802 32.6635 103.535 32.6396 100.244 32.6396C100.173 32.6396 100.101 32.6396 100.006 32.6396C100.197 32.2343 100.435 31.8766 100.53 31.4951C100.673 30.9466 100.745 30.3743 100.745 29.8021C100.769 21.4086 100.745 13.0152 100.745 4.62174C100.745 4.14484 100.697 3.66794 100.626 3.19104C100.578 2.66645 100.411 2.1657 99.8389 1.78418ZM103.392 32.1389C103.63 32.1627 103.821 32.1866 104.012 32.1866C105.848 32.1866 107.684 32.2343 109.496 32.1627C110.474 32.1389 111.475 32.0435 112.453 31.8527C114.742 31.3758 116.721 30.3743 118.176 28.4667C121.395 24.2462 122.587 19.501 121.824 14.2551C121.371 11.0837 119.94 8.31771 117.985 5.81399C117.365 5.00326 116.602 4.3356 115.696 3.83485C113.884 2.80952 111.928 2.30877 109.854 2.28492C107.875 2.26108 105.895 2.28492 103.893 2.28492C103.726 2.28492 103.559 2.30877 103.392 2.33261C103.392 12.276 103.392 22.1717 103.392 32.1389Z" fill="#F9CEB8"/>
<path d="M75.8984 32.1148C76.0891 32.1148 76.3037 32.1386 76.4945 32.1386C79.6182 32.1386 82.7419 32.1625 85.8894 32.1386C87.0101 32.1386 88.1308 32.1148 89.2516 31.8763C90.11 31.7094 90.9446 31.471 91.6599 30.7795C91.6599 31.3994 91.6599 31.9717 91.6599 32.5202C91.2307 32.6632 74.1577 32.7109 72.417 32.5917C73.0131 32.091 73.1323 31.4233 73.2039 30.7318C73.2516 30.1357 73.2754 29.5634 73.2754 28.9673C73.2754 21.003 73.2754 13.0626 73.2754 5.0984C73.2754 4.40689 73.18 3.69154 73.1085 3.00004C73.0608 2.54698 72.87 2.11777 72.4408 1.7601C72.6316 1.7601 72.8224 1.7601 73.037 1.7601C77.8536 1.7601 82.6465 1.7601 87.4632 1.7601C88.8224 1.7601 90.1577 1.85548 91.5407 1.56934C91.5407 2.237 91.5407 2.85697 91.5407 3.54847C90.873 2.52314 89.8715 2.30853 88.87 2.28469C84.6495 2.26084 80.4289 2.26084 76.2322 2.28469C76.1368 2.28469 76.0414 2.30853 75.9699 2.30853C75.8268 2.73774 75.803 15.9002 75.9222 16.6871C76.0414 16.7109 76.1607 16.7348 76.2799 16.7348C80.1189 16.7348 83.958 16.7348 87.7732 16.7109C88.3931 16.7109 89.0131 16.5678 89.6331 16.4963C89.6331 16.9971 89.6331 17.5693 89.6331 18.237C88.9654 17.3786 88.0832 17.2594 87.1771 17.2594C83.6241 17.2594 80.0712 17.2594 76.5422 17.2594C76.3276 17.2594 76.1368 17.2832 75.9461 17.2832C75.803 17.8316 75.7791 31.4948 75.8984 32.1148Z" fill="#F9CEB8"/>
<path d="M158.497 32.8301C157.043 32.9255 155.636 32.687 154.325 32.1147C152.751 31.4232 151.558 30.3264 150.7 28.848C148.983 25.8435 147.6 22.6721 146.289 19.5007C144.381 14.8748 142.545 10.2012 140.661 5.55139C140.59 5.40832 140.542 5.24141 140.423 5.00295C140.304 5.26525 140.208 5.43217 140.137 5.59908C136.894 13.5395 133.627 21.456 130.384 29.3964C130.193 29.8733 130.05 30.374 129.955 30.8748C129.836 31.5424 129.907 32.1624 130.646 32.6155C129.526 32.6155 128.5 32.6155 127.499 32.6155C127.499 32.5916 127.475 32.5439 127.499 32.5201C128.429 31.8524 128.953 30.8748 129.406 29.8495C131.743 24.3174 134.056 18.7854 136.393 13.2533C137.705 10.1535 139.016 7.02978 140.327 3.92993C140.685 3.07151 141.019 2.18924 141.186 1.25929C141.21 1.14006 141.234 1.04468 141.281 0.925458C141.281 0.901613 141.329 0.877768 141.377 0.830078C141.448 0.996993 141.544 1.16391 141.615 1.35467C144.381 8.05512 147.123 14.7556 149.889 21.4322C150.843 23.6974 151.845 25.9389 152.87 28.1803C153.156 28.8241 153.561 29.3964 153.943 29.9925C154.873 31.4232 156.208 32.2816 157.854 32.6632C158.068 32.7109 158.283 32.7824 158.497 32.8301Z" fill="#F9CEB8"/>
<path d="M19.2429 1.47363C19.2429 2.02207 19.2429 2.49897 19.2429 3.02356C18.3845 2.3559 17.4069 2.30821 16.4054 2.30821C12.3279 2.30821 8.25037 2.30821 4.17288 2.30821C3.98212 2.30821 3.79136 2.33205 3.57675 2.33205C3.57675 7.14875 3.57675 11.9177 3.57675 16.7344C3.69598 16.7583 3.8152 16.7821 3.91058 16.7821C7.84501 16.7821 11.7556 16.7821 15.69 16.7583C16.2146 16.7583 16.7392 16.6391 17.3353 16.5675C17.4307 17.0444 17.3353 17.5929 17.383 18.2367C17.2161 18.0936 17.1207 18.0221 17.0492 17.9267C16.5961 17.4736 16.0238 17.3783 15.4277 17.3306C15.2608 17.3067 15.07 17.3067 14.8793 17.3067C11.3502 17.3067 7.82116 17.3067 4.2921 17.3067C4.0775 17.3067 3.83905 17.3067 3.57675 17.3067C3.55291 17.569 3.55291 17.7598 3.55291 17.9267C3.55291 21.8134 3.55291 25.7002 3.55291 29.5869C3.55291 29.7538 3.55291 29.9207 3.57675 30.1115C3.62444 30.9938 3.76751 31.8522 4.45902 32.5914C3.00447 32.5914 1.62146 32.5914 0.14307 32.5914C0.882265 31.8283 0.882265 30.8984 0.9538 29.9923C0.977645 29.6823 0.977645 29.3723 0.977645 29.0862C0.977645 21.1696 0.977645 13.2531 0.977645 5.33652C0.977645 4.78809 0.929955 4.23965 0.882265 3.69122C0.786885 3.02356 0.61997 2.3559 0 1.78362C0.309985 1.78362 0.52459 1.78362 0.71535 1.78362C5.62742 1.78362 10.5156 1.78362 15.4277 1.78362C16.6915 1.78362 17.9553 1.879 19.2429 1.47363Z" fill="#F9CEB8"/>
<path d="M60.3041 32.6154C58.8257 32.6154 57.4665 32.6154 56.012 32.6154C56.8227 31.7093 56.8704 30.6601 56.8704 29.5871C56.8942 28.1087 56.8704 26.6064 56.8704 25.128C56.8704 18.4753 56.8704 11.8225 56.8704 5.16976C56.8704 4.52595 56.7988 3.88213 56.7035 3.23832C56.6319 2.71373 56.4173 2.26067 55.9404 1.80762C56.7512 1.80762 57.4665 1.80762 58.158 1.80762C58.8734 1.80762 59.5649 1.80762 60.3518 1.80762C59.4218 2.88064 59.4695 4.14443 59.4695 5.36052C59.4456 10.1534 59.4695 14.9462 59.4695 19.7152C59.4695 22.8151 59.4695 25.9388 59.4695 29.0386C59.4695 29.5632 59.4933 30.1116 59.541 30.6362C59.6126 31.3277 59.7318 32.0192 60.3041 32.6154Z" fill="#F9CEB8"/>
</g>
<defs>
<clipPath id="clip0_301_840">
<rect width="158.498" height="32" fill="white" transform="translate(0 0.853516)"/>
</clipPath>
</defs>
</svg>
