<svg width="39" height="29" viewBox="0 0 39 29" fill="none" xmlns="http://www.w3.org/2000/svg">
<path d="M19.3659 6.17432L6.0624 16.3698C6.0624 16.3842 6.05851 16.4053 6.05073 16.4342C6.04311 16.4628 6.03906 16.4836 6.03906 16.4984V26.8224C6.03906 27.1951 6.18566 27.5182 6.47878 27.7902C6.77181 28.0624 7.11881 28.1993 7.51987 28.1993H16.4041V19.9399H22.3277V28.1996H31.2119C31.6128 28.1996 31.9603 28.063 32.253 27.7902C32.5461 27.5185 32.6932 27.1952 32.6932 26.8224V16.4984C32.6932 16.4411 32.6847 16.3979 32.6698 16.3698L19.3659 6.17432Z" fill="#344A60"/>
<path d="M37.7631 14.0468L32.6965 10.1323V1.35673C32.6965 1.15612 32.6271 0.991133 32.4879 0.862008C32.3498 0.733035 32.1723 0.668548 31.956 0.668548H27.5138C27.2978 0.668548 27.1204 0.733035 26.9814 0.862008C26.8427 0.991133 26.7735 1.15619 26.7735 1.35673V5.55086L21.1282 1.16297C20.6351 0.790139 20.0489 0.60376 19.3701 0.60376C18.6914 0.60376 18.1053 0.790139 17.6118 1.16297L0.975848 14.0468C0.821633 14.1614 0.73711 14.3155 0.721388 14.5091C0.705748 14.7026 0.759638 14.8715 0.883222 15.0148L2.31768 16.6065C2.44126 16.7355 2.60301 16.8144 2.80358 16.8432C2.98875 16.8577 3.17393 16.8073 3.3591 16.6927L19.3696 4.28184L35.3804 16.6926C35.504 16.7927 35.6657 16.8426 35.8663 16.8426H35.9358C36.136 16.8143 36.2975 16.7349 36.4217 16.6062L37.8563 15.0147C37.9797 14.8712 38.0337 14.7025 38.0177 14.5088C38.0019 14.3157 37.917 14.1616 37.7631 14.0468Z" fill="#344A60"/>
</svg>
