<?xml version="1.0" encoding="UTF-8"?> <svg xmlns="http://www.w3.org/2000/svg" width="139" height="28" viewBox="0 0 139 28" fill="none"><g clip-path="url(#clip0_301_804)"><path d="M44.0865 27.708C42.9807 27.8332 41.8749 27.9167 40.7691 27.708C39.2877 27.4368 38.0359 26.7274 37.0135 25.6424C36.5336 25.1417 36.0746 24.5992 35.6782 24.0359C34.2803 22.0329 32.9241 20.0299 31.5262 18.0269C30.8794 17.1089 30.1283 16.2743 29.2311 15.6067C28.7304 15.2311 28.2087 14.8764 27.5828 14.6886C28.1044 14.6469 28.626 14.6261 29.1476 14.5426C29.8779 14.4383 30.629 14.334 31.3593 14.1462C34.0508 13.4994 35.5739 11.4547 35.7199 8.78403C35.8034 7.2192 35.6365 5.67523 35.0314 4.21473C34.2803 2.37866 32.8824 1.39804 30.9211 1.27285C29.3354 1.18939 27.7497 1.21026 26.164 1.16853C26.0597 1.16853 25.9345 1.18939 25.7676 1.18939C25.7468 1.4189 25.7259 1.62754 25.7259 1.83619C25.7259 6.46808 25.7259 11.0791 25.7259 15.711C25.7259 18.7572 25.7259 21.8243 25.7259 24.8705C25.7259 25.0791 25.7259 25.3086 25.7259 25.5173C25.7676 26.3101 25.8302 27.1238 26.477 27.7706C25.1834 27.7706 23.9524 27.7706 22.6797 27.7706C23.4099 26.936 23.4725 25.9137 23.4725 24.9122C23.4725 17.7557 23.4725 10.5992 23.4725 3.44275C23.4725 2.92114 23.3891 2.42039 23.3265 1.89878C23.2639 1.50236 23.097 1.1268 22.7631 0.876426C22.784 0.855562 22.8049 0.813833 22.8257 0.813833C25.559 0.792969 28.2922 0.792969 31.0254 0.792969C32.0895 0.792969 33.1119 1.02248 34.0925 1.43976C36.2624 2.37866 37.4725 4.08954 37.869 6.38462C38.0776 7.59476 38.0567 8.80489 37.8064 10.015C37.556 11.1834 37.0135 12.2058 36.2624 13.1238C35.3235 14.2505 34.0716 14.8347 32.6946 15.1894C32.4025 15.2729 32.1104 15.3354 31.7766 15.4189C32.1104 15.711 32.4025 15.9405 32.6737 16.1909C33.5918 17.0463 34.2177 18.1104 34.8645 19.1536C35.4904 20.1551 36.0538 21.1983 36.6588 22.2207C37.4725 23.5977 38.4532 24.8287 39.6007 25.9345C40.7065 26.9986 42.0418 27.5202 43.5649 27.6454C43.7319 27.6663 43.9196 27.6872 44.0865 27.708Z" fill="#344A60"></path><path d="M87.3594 0.814453C87.568 0.814453 87.6515 0.814453 87.7558 0.814453C90.4682 0.814453 93.2014 0.814453 95.9138 0.814453C99.1895 0.814453 102.09 1.8994 104.593 4.0067C106.826 5.8845 108.161 8.30477 108.724 11.1423C109.246 13.7921 109.184 16.421 108.349 19.0082C107.181 22.6177 104.76 25.1423 101.318 26.7072C99.732 27.4374 98.0628 27.813 96.3311 27.813C93.4518 27.8338 90.5934 27.813 87.7141 27.813C87.6515 27.813 87.5889 27.813 87.5054 27.813C87.6723 27.4583 87.881 27.1453 87.9644 26.8115C88.0896 26.3316 88.1522 25.8308 88.1522 25.3301C88.1731 17.9858 88.1522 10.6416 88.1522 3.29731C88.1522 2.88003 88.1105 2.46274 88.0479 2.04545C88.0062 1.58644 87.8601 1.14828 87.3594 0.814453ZM90.4682 27.3748C90.6768 27.3957 90.8437 27.4165 91.0106 27.4165C92.6172 27.4165 94.2238 27.4583 95.8095 27.3957C96.6649 27.3748 97.5412 27.2914 98.3966 27.1244C100.4 26.7072 102.131 25.8308 103.404 24.1617C106.221 20.4687 107.264 16.3167 106.596 11.7265C106.2 8.95156 104.948 6.53129 103.237 4.34053C102.695 3.63114 102.027 3.04694 101.234 2.60879C99.6485 1.71162 97.9376 1.27347 96.1224 1.25261C94.3907 1.23174 92.6589 1.25261 90.9063 1.25261C90.7603 1.25261 90.6142 1.27347 90.4682 1.29433C90.4682 9.99478 90.4682 18.6535 90.4682 27.3748Z" fill="#344A60"></path><path d="M66.4114 27.3533C66.5783 27.3533 66.7661 27.3741 66.933 27.3741C69.6663 27.3741 72.3995 27.395 75.1536 27.3741C76.1342 27.3741 77.1149 27.3533 78.0955 27.1446C78.8466 26.9986 79.5769 26.7899 80.2028 26.1848C80.2028 26.7273 80.2028 27.2281 80.2028 27.7079C79.8272 27.8331 64.8883 27.8749 63.3652 27.7705C63.8868 27.3324 63.9912 26.7482 64.0538 26.1431C64.0955 25.6215 64.1163 25.1208 64.1163 24.5992C64.1163 17.6304 64.1163 10.6826 64.1163 3.71391C64.1163 3.10884 64.0329 2.48291 63.9703 1.87784C63.9286 1.48142 63.7617 1.10586 63.3861 0.792892C63.553 0.792892 63.7199 0.792892 63.9077 0.792892C68.1223 0.792892 72.316 0.792892 76.5307 0.792892C77.7199 0.792892 78.8883 0.876349 80.0985 0.625977C80.0985 1.21018 80.0985 1.75265 80.0985 2.35772C79.5143 1.46055 78.638 1.27277 77.7617 1.25191C74.0687 1.23104 70.3757 1.23104 66.7035 1.25191C66.6201 1.25191 66.5366 1.27277 66.474 1.27277C66.3488 1.64833 66.328 13.1655 66.4323 13.854C66.5366 13.8749 66.6409 13.8957 66.7453 13.8957C70.1044 13.8957 73.4636 13.8957 76.8019 13.8749C77.3444 13.8749 77.8868 13.7497 78.4293 13.6871C78.4293 14.1252 78.4293 14.626 78.4293 15.2102C77.8451 14.4591 77.0731 14.3547 76.2803 14.3547C73.1715 14.3547 70.0627 14.3547 66.9748 14.3547C66.787 14.3547 66.6201 14.3756 66.4532 14.3756C66.328 14.8555 66.3071 26.8108 66.4114 27.3533Z" fill="#344A60"></path><path d="M138.686 27.9795C137.413 28.063 136.182 27.8543 135.034 27.3536C133.657 26.7485 132.614 25.7887 131.863 24.4951C130.361 21.8662 129.151 19.0913 128.003 16.3163C126.334 12.2686 124.727 8.17919 123.079 4.11064C123.017 3.98545 122.975 3.8394 122.871 3.63076C122.766 3.86027 122.683 4.00632 122.62 4.15237C119.783 11.1002 116.924 18.0272 114.087 24.975C113.92 25.3923 113.794 25.8305 113.711 26.2686C113.607 26.8528 113.669 27.3953 114.316 27.7917C113.335 27.7917 112.438 27.7917 111.562 27.7917C111.562 27.7708 111.541 27.7291 111.562 27.7083C112.376 27.1241 112.835 26.2686 113.231 25.3714C115.276 20.5309 117.3 15.6904 119.344 10.8498C120.492 8.13747 121.64 5.40423 122.787 2.69186C123.1 1.94074 123.392 1.16876 123.538 0.355051C123.559 0.250729 123.58 0.167272 123.622 0.0629497C123.622 0.0420853 123.663 0.021221 123.705 -0.0205078C123.768 0.125543 123.851 0.271594 123.914 0.438509C126.334 6.3014 128.733 12.1643 131.154 18.0063C131.988 19.9884 132.865 21.9497 133.762 23.9109C134.012 24.4743 134.367 24.975 134.701 25.4966C135.514 26.7485 136.683 27.4996 138.122 27.8334C138.31 27.8752 138.498 27.9378 138.686 27.9795Z" fill="#344A60"></path><path d="M16.8376 0.542969C16.8376 1.02285 16.8376 1.44014 16.8376 1.89915C16.0864 1.31495 15.231 1.27322 14.3547 1.27322C10.7869 1.27322 7.21908 1.27322 3.65127 1.27322C3.48435 1.27322 3.31744 1.29409 3.12966 1.29409C3.12966 5.50869 3.12966 9.68157 3.12966 13.8962C3.23398 13.917 3.3383 13.9379 3.42176 13.9379C6.86438 13.9379 10.2861 13.9379 13.7288 13.917C14.1878 13.917 14.6468 13.8127 15.1684 13.7501C15.2519 14.1674 15.1684 14.6473 15.2101 15.2106C15.0641 15.0854 14.9806 15.0228 14.918 14.9394C14.5216 14.543 14.0209 14.4595 13.4993 14.4178C13.3532 14.3969 13.1863 14.3969 13.0194 14.3969C9.93145 14.3969 6.84352 14.3969 3.75559 14.3969C3.56781 14.3969 3.35917 14.3969 3.12966 14.3969C3.10879 14.6264 3.10879 14.7933 3.10879 14.9394C3.10879 18.3403 3.10879 21.7412 3.10879 25.1421C3.10879 25.2881 3.10879 25.4342 3.12966 25.6011C3.17139 26.3731 3.29657 27.1242 3.90164 27.771C2.62891 27.771 1.41878 27.771 0.125186 27.771C0.771982 27.1033 0.771982 26.2896 0.834575 25.4968C0.85544 25.2255 0.85544 24.9543 0.85544 24.7039C0.85544 17.7769 0.85544 10.85 0.85544 3.923C0.85544 3.44312 0.813711 2.96324 0.771982 2.48336C0.688525 1.89915 0.542474 1.31495 0 0.814206C0.271237 0.814206 0.459016 0.814206 0.625931 0.814206C4.92399 0.814206 9.20119 0.814206 13.4993 0.814206C14.6051 0.814206 15.7109 0.897663 16.8376 0.542969Z" fill="#344A60"></path><path d="M52.7664 27.7917C51.4728 27.7917 50.2836 27.7917 49.0108 27.7917C49.7202 26.9989 49.762 26.0809 49.762 25.142C49.7828 23.8484 49.762 22.5339 49.762 21.2403C49.762 15.4192 49.762 9.598 49.762 3.77684C49.762 3.2135 49.6994 2.65016 49.6159 2.08682C49.5533 1.62781 49.3655 1.23138 48.9482 0.834961C49.6576 0.834961 50.2836 0.834961 50.8886 0.834961C51.5146 0.834961 52.1196 0.834961 52.8082 0.834961C51.9944 1.77386 52.0362 2.87967 52.0362 3.94375C52.0153 8.13749 52.0362 12.3312 52.0362 16.5041C52.0362 19.2165 52.0362 21.9497 52.0362 24.6621C52.0362 25.1211 52.057 25.601 52.0988 26.06C52.1614 26.6651 52.2657 27.2701 52.7664 27.7917Z" fill="#344A60"></path></g><defs><clipPath id="clip0_301_804"><rect width="138.686" height="28" fill="white"></rect></clipPath></defs></svg> 