<svg width="66" height="63" viewBox="0 0 66 63" fill="none" xmlns="http://www.w3.org/2000/svg">
<path d="M63.7175 28.8516H46.5242V5.99999H12.3906V28.8516H31.3537V53.6074C31.3537 54.66 32.2019 55.5117 33.2501 55.5117H57.5188L62.1397 62.2809C62.6137 62.9961 63.4923 63.2854 64.2675 63.047C65.0675 62.8034 65.6138 62.0633 65.6138 61.2246V30.7559C65.6138 29.7033 64.7656 28.8516 63.7175 28.8516Z" fill="url(#paint0_linear_1059_732)"/>
<path d="M47.9756 0.0311203H2.33772C1.28956 0.0311203 0.441406 0.882849 0.441406 1.93542V36.2128C0.441406 36.9826 0.902463 37.6782 1.61181 37.972C2.31066 38.2648 3.13114 38.1088 3.67854 37.5591L10.8346 30.4999H47.9756C49.0238 30.4999 49.8719 29.6481 49.8719 28.5956V1.93542C49.8719 0.882849 49.0238 0.0311203 47.9756 0.0311203ZM31.8848 16.8984L22.4032 22.6113C21.8159 22.9643 21.0861 22.9735 20.4921 22.6354C19.8977 22.2969 19.531 21.6647 19.531 20.9784V9.5526C19.531 8.86642 19.8976 8.23407 20.4921 7.89561C21.0867 7.55716 21.8163 7.56642 22.4032 7.91973L31.8848 13.6326C32.4552 13.9767 32.8051 14.5959 32.8051 15.2654C32.8051 15.9348 32.4551 16.5543 31.8848 16.8984ZM40.3904 38.1171C39.3431 38.1171 38.4941 38.9697 38.4941 40.0214C38.4941 41.073 39.3431 41.9257 40.3904 41.9257C41.4377 41.9257 42.2867 41.073 42.2867 40.0214C42.2867 38.9697 41.4377 38.1171 40.3904 38.1171ZM47.9756 38.1171C46.9284 38.1171 46.0793 38.9697 46.0793 40.0214C46.0793 41.073 46.9284 41.9257 47.9756 41.9257C49.0229 41.9257 49.8719 41.073 49.8719 40.0214C49.8719 38.9697 49.0229 38.1171 47.9756 38.1171ZM55.5609 38.1171C54.5136 38.1171 53.6646 38.9697 53.6646 40.0214C53.6646 41.073 54.5136 41.9257 55.5609 41.9257C56.6082 41.9257 57.4572 41.073 57.4572 40.0214C57.4572 38.9697 56.6082 38.1171 55.5609 38.1171Z" fill="url(#paint1_linear_1059_732)"/>
<defs>
<linearGradient id="paint0_linear_1059_732" x1="39.0022" y1="63.1292" x2="39.0022" y2="6.00012" gradientUnits="userSpaceOnUse">
<stop stop-color="#FFC2CC"/>
<stop offset="1" stop-color="#FFF2F4"/>
</linearGradient>
<linearGradient id="paint1_linear_1059_732" x1="28.9493" y1="41.9258" x2="28.9493" y2="0.0312452" gradientUnits="userSpaceOnUse">
<stop stop-color="#FD3A84"/>
<stop offset="1" stop-color="#FFA68D"/>
</linearGradient>
</defs>
</svg>
