<svg width="63" height="63" viewBox="0 0 63 63" fill="none" xmlns="http://www.w3.org/2000/svg">
<path d="M61.8398 13.4844C61.4616 6.81866 56.1501 1.50711 49.4844 1.12891C37.5495 0.451823 25.4459 0.451823 13.5124 1.12891C6.84666 1.50712 1.53512 6.81866 1.15625 13.4844C0.479167 25.4193 0.479167 37.5221 1.15625 49.457C1.53513 56.1227 6.84666 61.4343 13.5124 61.8125C25.4777 62.4914 37.5199 62.4912 49.4844 61.8125C56.1501 61.4343 61.4616 56.1227 61.8398 49.457C62.5169 37.5221 62.5169 25.4193 61.8398 13.4844Z" fill="url(#paint0_linear_1059_748)"/>
<path d="M50.4557 30.4848H40.9766C40.4159 30.4848 39.9609 30.0299 39.9609 29.4692C39.9609 28.9085 40.4159 28.4536 40.9766 28.4536H42.2362C40.9946 24.0861 37.164 20.7991 32.513 20.3771V18.3414C38.2882 18.7841 43.0263 22.9594 44.3315 28.4536H48.4771C47.0902 20.7098 40.5328 14.7507 32.513 14.2807V12.5421C32.513 11.9814 32.0581 11.5265 31.4974 11.5265C30.9367 11.5265 30.4818 11.9814 30.4818 12.5421V22.0213C30.4818 22.582 30.0269 23.0369 29.4661 23.0369C28.9054 23.0369 28.4505 22.582 28.4505 22.0213V20.7617C24.083 22.0033 20.7961 25.8339 20.374 30.4848H18.3383C18.781 24.7097 22.9563 19.9715 28.4505 18.6664V14.5207C20.7067 15.9077 14.7476 22.4651 14.2776 30.4848H12.5391C11.9784 30.4848 11.5234 30.9398 11.5234 31.5005C11.5234 32.0612 11.9784 32.5161 12.5391 32.5161H22.0182C22.5789 32.5161 23.0339 32.971 23.0339 33.5317C23.0339 34.0924 22.5789 34.5473 22.0182 34.5473H20.7586C22.0002 38.9148 25.8308 42.2018 30.4818 42.6238V44.6595C24.7066 44.2169 19.9685 40.0415 18.6633 34.5473H14.5177C15.9046 42.2912 22.462 48.2503 30.4818 48.7202V50.4588C30.4818 51.0195 30.9367 51.4744 31.4974 51.4744C32.0581 51.4744 32.513 51.0195 32.513 50.4588V40.9796C32.513 40.4189 32.9679 39.964 33.5286 39.964C34.0894 39.964 34.5443 40.4189 34.5443 40.9796V42.2393C38.9118 40.9977 42.1987 37.1671 42.6208 32.5161H44.6565C44.2138 38.2912 40.0385 43.0294 34.5443 44.3346V48.4802C42.2881 47.0932 48.2472 40.5359 48.7172 32.5161H50.4557C51.0164 32.5161 51.4714 32.0612 51.4714 31.5005C51.4714 30.9398 51.0164 30.4848 50.4557 30.4848ZM30.8203 30.4848H32.1745C33.854 30.4848 35.2214 31.8516 35.2214 33.5317C35.2214 35.0959 34.0318 36.3735 32.513 36.5444V36.9171C32.513 37.4778 32.0581 37.9328 31.4974 37.9328C30.9367 37.9328 30.4818 37.4778 30.4818 36.9171V36.5786H28.7891C28.2284 36.5786 27.7734 36.1237 27.7734 35.563C27.7734 35.0023 28.2284 34.5473 28.7891 34.5473H32.1745C32.7339 34.5473 33.1901 34.0918 33.1901 33.5317C33.1901 32.9717 32.7339 32.5161 32.1745 32.5161H30.8203C29.1408 32.5161 27.7734 31.1494 27.7734 29.4692C27.7734 27.905 28.963 26.6275 30.4818 26.4566V26.0838C30.4818 25.5231 30.9367 25.0682 31.4974 25.0682C32.0581 25.0682 32.513 25.5231 32.513 26.0838V26.4223H34.2057C34.7664 26.4223 35.2214 26.8773 35.2214 27.438C35.2214 27.9987 34.7664 28.4536 34.2057 28.4536H30.8203C30.2609 28.4536 29.8047 28.9092 29.8047 29.4692C29.8047 30.0293 30.2609 30.4848 30.8203 30.4848Z" fill="url(#paint1_linear_1059_748)"/>
<defs>
<linearGradient id="paint0_linear_1059_748" x1="31.498" y1="0.324843" x2="31.498" y2="61.6821" gradientUnits="userSpaceOnUse">
<stop stop-color="#FFEEF1"/>
<stop offset="1" stop-color="#FFC6CF"/>
</linearGradient>
<linearGradient id="paint1_linear_1059_748" x1="31.4974" y1="9.11339" x2="31.4974" y2="54.0568" gradientUnits="userSpaceOnUse">
<stop stop-color="#FD4685"/>
<stop offset="1" stop-color="#FF9D8C"/>
</linearGradient>
</defs>
</svg>
