<svg width="57" height="55" viewBox="0 0 57 55" fill="none" xmlns="http://www.w3.org/2000/svg">
<path d="M47.0267 34.731C46.7865 34.9686 46.6075 35.2608 46.5049 35.5827C46.4023 35.9047 46.3792 36.2466 46.4376 36.5794L48.3267 47.67C48.4761 48.5492 48.4323 49.4503 48.1983 50.3108C47.9643 51.1713 47.5456 51.9705 46.9715 52.6529C46.3974 53.3352 45.6816 53.8844 44.8738 54.2621C44.066 54.6399 43.1856 54.8372 42.2939 54.8403C41.2948 54.8462 40.3102 54.6018 39.4298 54.1294L29.4767 48.8888C29.1737 48.7385 28.84 48.6603 28.5017 48.6603C28.1634 48.6603 27.8297 48.7385 27.5267 48.8888L17.5736 54.1294C16.5613 54.6619 15.4202 54.9006 14.2793 54.8185C13.1384 54.7364 12.0433 54.3367 11.1177 53.6647C10.1921 52.9927 9.47293 52.0751 9.04157 51.0158C8.6102 49.9564 8.48382 48.7975 8.6767 47.67L10.5658 36.5794C10.6242 36.2466 10.6011 35.9047 10.4985 35.5827C10.3959 35.2608 10.2169 34.9686 9.9767 34.731L1.93295 26.8903C1.11043 26.0916 0.527966 25.0786 0.251502 23.9659C-0.0249615 22.8532 0.0156206 21.6853 0.368654 20.5945C0.721688 19.5037 1.37307 18.5335 2.24905 17.7938C3.12503 17.0541 4.19061 16.5744 5.32514 16.4091L16.4564 14.8044C16.7889 14.7532 17.1043 14.6233 17.3764 14.4254C17.6485 14.2275 17.8693 13.9675 18.0204 13.6669L22.997 3.57159C23.506 2.54677 24.2909 1.68437 25.2634 1.08148C26.2359 0.478602 27.3575 0.15918 28.5017 0.15918C29.6459 0.15918 30.7675 0.478602 31.74 1.08148C32.7125 1.68437 33.4974 2.54677 34.0064 3.57159L38.9829 13.6669C39.1341 13.9675 39.3549 14.2275 39.627 14.4254C39.8991 14.6233 40.2145 14.7532 40.547 14.8044L51.6783 16.4091C52.8118 16.5758 53.8763 17.0556 54.7518 17.7946C55.6273 18.5336 56.2791 19.5024 56.6338 20.5918C56.9885 21.6812 57.032 22.848 56.7594 23.9608C56.4868 25.0737 55.9089 26.0882 55.0908 26.8903L47.0267 34.731Z" fill="url(#paint0_linear_1059_761)"/>
<defs>
<linearGradient id="paint0_linear_1059_761" x1="0.0601371" y1="27.4997" x2="56.9433" y2="27.4997" gradientUnits="userSpaceOnUse">
<stop stop-color="#FFA08C"/>
<stop offset="1" stop-color="#FD5986"/>
</linearGradient>
</defs>
</svg>
