<svg width="16" height="16" viewBox="0 0 16 16" fill="none" xmlns="http://www.w3.org/2000/svg">
<g clip-path="url(#clip0_963_960)">
<path d="M14.9605 7.99202C14.4558 7.9965 14.0318 8.37243 13.9669 8.87289C13.4861 12.1578 10.4333 14.431 7.14841 13.9503C3.86347 13.4695 1.59026 10.4167 2.07105 7.1318C2.55183 3.84686 5.60457 1.57365 8.8895 2.05444C10.0092 2.21832 11.06 2.69494 11.9208 3.42951L11.1668 4.1836C10.9062 4.44424 10.9062 4.86678 11.1669 5.12735C11.2925 5.25291 11.463 5.32323 11.6405 5.32273H14.7009C15.0695 5.32273 15.3682 5.02397 15.3682 4.65541V1.59505C15.3681 1.22649 15.0693 0.927792 14.7007 0.927854C14.5239 0.927886 14.3542 0.998174 14.2291 1.12324L13.3402 2.01211C10.0332 -0.917782 4.9772 -0.612105 2.04727 2.69491C-0.882654 6.00193 -0.576914 11.058 2.73007 13.9879C6.03706 16.9178 11.0931 16.6121 14.023 13.3051C15.0544 12.1409 15.7241 10.7014 15.9501 9.16253C16.0386 8.61161 15.6637 8.09325 15.1128 8.00479C15.0624 7.99668 15.0115 7.99243 14.9605 7.99202Z" fill="#193048"/>
</g>
<defs>
<clipPath id="clip0_963_960">
<rect width="16" height="16" fill="white"/>
</clipPath>
</defs>
</svg>
