<svg width="43" height="41" viewBox="0 0 43 41" fill="none" xmlns="http://www.w3.org/2000/svg">
<path d="M34.9701 25.7468C34.7912 25.9238 34.6579 26.1415 34.5815 26.3812C34.5051 26.6209 34.4879 26.8756 34.5314 27.1234L35.9382 35.383C36.0495 36.0378 36.0169 36.7089 35.8426 37.3497C35.6683 37.9905 35.3566 38.5857 34.929 39.0939C34.5014 39.6021 33.9683 40.0111 33.3667 40.2924C32.7652 40.5737 32.1095 40.7207 31.4454 40.723C30.7014 40.7274 29.9681 40.5453 29.3124 40.1935L21.9 36.2907C21.6743 36.1787 21.4258 36.1205 21.1739 36.1205C20.9219 36.1205 20.6734 36.1787 20.4477 36.2907L13.0353 40.1935C12.2814 40.5901 11.4316 40.7679 10.5819 40.7067C9.73229 40.6456 8.91669 40.3479 8.22736 39.8475C7.53803 39.347 7.00246 38.6637 6.68121 37.8747C6.35996 37.0858 6.26584 36.2227 6.40948 35.383L7.81633 27.1234C7.85984 26.8756 7.84266 26.6209 7.76626 26.3812C7.68986 26.1415 7.55652 25.9238 7.37764 25.7468L1.38717 19.9076C0.774614 19.3128 0.340831 18.5583 0.134938 17.7297C-0.070954 16.901 -0.040731 16.0313 0.222186 15.2189C0.485102 14.4066 0.97021 13.684 1.62258 13.1331C2.27495 12.5823 3.06853 12.225 3.91345 12.1019L12.2033 10.9068C12.4509 10.8687 12.6859 10.7719 12.8885 10.6246C13.0911 10.4772 13.2556 10.2835 13.3681 10.0597L17.0743 2.54134C17.4534 1.77812 18.0379 1.13586 18.7622 0.686873C19.4865 0.237885 20.3217 0 21.1739 0C22.026 0 22.8613 0.237885 23.5855 0.686873C24.3098 1.13586 24.8944 1.77812 25.2734 2.54134L28.9796 10.0597C29.0922 10.2835 29.2566 10.4772 29.4593 10.6246C29.6619 10.7719 29.8968 10.8687 30.1444 10.9068L38.4343 12.1019C39.2785 12.226 40.0712 12.5834 40.7232 13.1337C41.3753 13.6841 41.8607 14.4056 42.1249 15.2169C42.389 16.0282 42.4214 16.8972 42.2184 17.7259C42.0153 18.5547 41.585 19.3103 40.9757 19.9076L34.9701 25.7468Z" fill="url(#paint0_linear_1059_802)"/>
<defs>
<linearGradient id="paint0_linear_1059_802" x1="-0.00757796" y1="20.3615" x2="42.3553" y2="20.3615" gradientUnits="userSpaceOnUse">
<stop stop-color="#FFA08C"/>
<stop offset="1" stop-color="#FD5986"/>
</linearGradient>
</defs>
</svg>
