<svg width="38" height="39" viewBox="0 0 38 39" fill="none" xmlns="http://www.w3.org/2000/svg">
<path d="M37.6719 8.91345C37.4391 4.81148 34.1705 1.54284 30.0685 1.3101C22.7239 0.89343 15.2756 0.89343 7.93188 1.3101C3.82992 1.54285 0.561275 4.81148 0.328125 8.91345C-0.0885417 16.258 -0.0885417 23.7059 0.328125 31.0505C0.561283 35.1525 3.82992 38.4211 7.93188 38.6538C15.2952 39.0716 22.7057 39.0715 30.0685 38.6538C34.1705 38.4211 37.4391 35.1525 37.6719 31.0505C38.0885 23.7059 38.0885 16.258 37.6719 8.91345Z" fill="url(#paint0_linear_1059_805)"/>
<path d="M30.6654 19.3753H24.832C24.487 19.3753 24.207 19.0953 24.207 18.7503C24.207 18.4052 24.487 18.1253 24.832 18.1253H25.6072C24.8431 15.4376 22.4858 13.4149 19.6237 13.1552V11.9024C23.1776 12.1748 26.0934 14.7443 26.8966 18.1253H29.4478C28.5942 13.3599 24.559 9.69273 19.6237 9.40352V8.33363C19.6237 7.98858 19.3438 7.70863 18.9987 7.70863C18.6537 7.70863 18.3737 7.98858 18.3737 8.33363V14.167C18.3737 14.512 18.0938 14.792 17.7487 14.792C17.4037 14.792 17.1237 14.512 17.1237 14.167V13.3918C14.436 14.1559 12.4133 16.5132 12.1536 19.3753H10.9008C11.1732 15.8214 13.7427 12.9056 17.1237 12.1024V9.55123C12.3583 10.4048 8.69113 14.44 8.40192 19.3753H7.33203C6.98698 19.3753 6.70703 19.6552 6.70703 20.0003C6.70703 20.3453 6.98698 20.6253 7.33203 20.6253H13.1654C13.5104 20.6253 13.7904 20.9052 13.7904 21.2503C13.7904 21.5953 13.5104 21.8753 13.1654 21.8753H12.3902C13.1543 24.563 15.5116 26.5857 18.3737 26.8454V28.0982C14.8198 27.8258 11.904 25.2563 11.1008 21.8753H8.54963C9.40316 26.6407 13.4384 30.3079 18.3737 30.5971V31.667C18.3737 32.012 18.6537 32.292 18.9987 32.292C19.3438 32.292 19.6237 32.012 19.6237 31.667V25.8336C19.6237 25.4886 19.9037 25.2086 20.2487 25.2086C20.5938 25.2086 20.8737 25.4886 20.8737 25.8336V26.6088C23.5614 25.8447 25.5841 23.4874 25.8438 20.6253H27.0966C26.8242 24.1792 24.2547 27.095 20.8737 27.8982V30.4494C25.6391 29.5958 29.3063 25.5605 29.5955 20.6253H30.6654C31.0104 20.6253 31.2904 20.3453 31.2904 20.0003C31.2904 19.6552 31.0104 19.3753 30.6654 19.3753ZM18.582 19.3753H19.4154C20.4489 19.3753 21.2904 20.2164 21.2904 21.2503C21.2904 22.2129 20.5584 22.9991 19.6237 23.1042V23.3336C19.6237 23.6787 19.3438 23.9586 18.9987 23.9586C18.6537 23.9586 18.3737 23.6787 18.3737 23.3336V23.1253H17.332C16.987 23.1253 16.707 22.8453 16.707 22.5003C16.707 22.1552 16.987 21.8753 17.332 21.8753H19.4154C19.7596 21.8753 20.0404 21.5949 20.0404 21.2503C20.0404 20.9057 19.7596 20.6253 19.4154 20.6253H18.582C17.5485 20.6253 16.707 19.7842 16.707 18.7503C16.707 17.7877 17.439 17.0015 18.3737 16.8964V16.667C18.3737 16.3219 18.6537 16.042 18.9987 16.042C19.3438 16.042 19.6237 16.3219 19.6237 16.667V16.8753H20.6654C21.0104 16.8753 21.2904 17.1552 21.2904 17.5003C21.2904 17.8453 21.0104 18.1253 20.6654 18.1253H18.582C18.2378 18.1253 17.957 18.4057 17.957 18.7503C17.957 19.0949 18.2378 19.3753 18.582 19.3753Z" fill="url(#paint1_linear_1059_805)"/>
<defs>
<linearGradient id="paint0_linear_1059_805" x1="19" y1="0.815288" x2="19" y2="38.5736" gradientUnits="userSpaceOnUse">
<stop stop-color="#FFEEF1"/>
<stop offset="1" stop-color="#FFC6CF"/>
</linearGradient>
<linearGradient id="paint1_linear_1059_805" x1="18.9987" y1="6.22363" x2="18.9987" y2="33.8811" gradientUnits="userSpaceOnUse">
<stop stop-color="#FD4685"/>
<stop offset="1" stop-color="#FF9D8C"/>
</linearGradient>
</defs>
</svg>
