<svg width="42" height="38" viewBox="0 0 42 38" fill="none" xmlns="http://www.w3.org/2000/svg">
<path d="M28.0825 19.8157L26.0578 16.6188L21.9047 23.8704C21.6851 24.2538 21.2772 24.4893 20.837 24.4893C20.8265 24.4893 20.816 24.4892 20.8054 24.4889C20.3532 24.4773 19.9438 24.2185 19.7393 23.8149L14.707 13.8829L12.2917 19.6337C12.0998 20.0906 11.6526 20.3878 11.1572 20.3878H4.58203C4.69925 20.5164 4.81959 20.6429 4.94346 20.7668L20.1309 35.9542C20.3712 36.1945 20.6861 36.3147 21.0009 36.3147C21.3158 36.3147 21.6307 36.1946 21.8709 35.9542L37.0584 20.7668C37.1822 20.6429 37.3026 20.5164 37.4198 20.3878H29.122C28.7004 20.3878 28.3081 20.1719 28.0825 19.8157Z" fill="url(#paint0_linear_1059_762)"/>
<path d="M13.4671 10.4777C13.6528 10.0355 14.0784 9.74154 14.5577 9.72447C15.0352 9.70675 15.4824 9.97032 15.6991 10.398L20.9022 20.6672L24.9361 13.6239C25.1505 13.2496 25.5453 13.0148 25.9765 13.0052C26.4082 12.9961 26.8126 13.2125 27.0434 13.577L29.7983 17.9269H39.1143C39.875 16.4149 40.2773 14.7351 40.2773 12.9933C40.2773 10.0569 39.1338 7.29627 37.0575 5.21989C34.9812 3.14352 32.2205 2 29.2841 2C26.3477 2 23.587 3.14352 21.5106 5.21989L21 5.73054L20.4894 5.21997C18.413 3.1436 15.6524 2.00008 12.7159 2.00008C9.77944 2.00008 7.01884 3.1436 4.94246 5.21989C2.86617 7.29627 1.72266 10.0569 1.72266 12.9933C1.72266 14.735 2.12502 16.4149 2.8857 17.9269H10.3385L13.4671 10.4777Z" fill="url(#paint1_linear_1059_762)"/>
<path d="M1.23047 17.9269C0.550922 17.9269 0 18.4778 0 19.1573C0 19.8369 0.550922 20.3878 1.23047 20.3878H4.58112C3.89911 19.6392 3.33088 18.8119 2.8857 17.9269H1.23047Z" fill="url(#paint2_linear_1059_762)"/>
<path d="M40.7686 17.9269H39.1134C38.6681 18.8119 38.1 19.6392 37.418 20.3878H40.7686C41.4482 20.3878 41.9991 19.8369 41.9991 19.1573C41.9991 18.4778 41.4482 17.9269 40.7686 17.9269Z" fill="url(#paint3_linear_1059_762)"/>
<defs>
<linearGradient id="paint0_linear_1059_762" x1="4.57616" y1="25.0987" x2="37.4239" y2="25.0987" gradientUnits="userSpaceOnUse">
<stop stop-color="#FFA08C"/>
<stop offset="1" stop-color="#FD5986"/>
</linearGradient>
<linearGradient id="paint1_linear_1059_762" x1="1.71576" y1="11.3336" x2="40.2822" y2="11.3336" gradientUnits="userSpaceOnUse">
<stop stop-color="#FFA08C"/>
<stop offset="1" stop-color="#FD5986"/>
</linearGradient>
<linearGradient id="paint2_linear_1059_762" x1="-0.000819729" y1="19.1573" x2="4.58169" y2="19.1573" gradientUnits="userSpaceOnUse">
<stop stop-color="#FFA08C"/>
<stop offset="1" stop-color="#FD5986"/>
</linearGradient>
<linearGradient id="paint3_linear_1059_762" x1="37.4171" y1="19.1573" x2="41.9997" y2="19.1573" gradientUnits="userSpaceOnUse">
<stop stop-color="#FFA08C"/>
<stop offset="1" stop-color="#FD5986"/>
</linearGradient>
</defs>
</svg>
