<svg width="12" height="20" viewBox="0 0 12 20" fill="none" xmlns="http://www.w3.org/2000/svg">
<path d="M11.4308 9.2196L2.53055 0.31951C2.3247 0.113495 2.0499 0 1.7569 0C1.46389 0 1.1891 0.113495 0.983244 0.31951L0.327802 0.974789C-0.0986983 1.40178 -0.0986983 2.09576 0.327802 2.52209L7.80156 9.99585L0.31951 17.4779C0.113658 17.6839 0 17.9586 0 18.2514C0 18.5446 0.113658 18.8192 0.31951 19.0254L0.974951 19.6805C1.18097 19.8865 1.4556 20 1.7486 20C2.04161 20 2.3164 19.8865 2.52226 19.6805L11.4308 10.7723C11.6371 10.5656 11.7505 10.2897 11.7498 9.99634C11.7505 9.70187 11.6371 9.4261 11.4308 9.2196Z" fill="#344A60"/>
</svg>
