<svg width="50" height="50" viewBox="0 0 50 50" fill="none" xmlns="http://www.w3.org/2000/svg">
<path d="M5.45244 21.5789L7.85088 22.8639L8.86943 24.5403L11.3732 23.019L9.93926 20.6592L8.59453 19.9387L8.81289 18.076L7.9751 16.3979L8.99551 15.2638L9.54307 12.5572L6.67158 11.9763L6.28252 13.8989L4.46289 15.9217L5.80137 18.6027L5.45244 21.5789Z" fill="#344A60"/>
<path d="M4.99668 33.5503L7.50273 33.2808L8.98135 31.5027L11.1384 31.8493L11.6031 28.9567L7.79678 28.3451L6.00918 30.4948L2.93828 30.8249L1.90869 33.3722H0V36.3019H3.88437L4.99668 33.5503Z" fill="#344A60"/>
<path d="M50 36.7673C50 34.362 48.8443 32.227 47.0581 30.8864V13.0804C47.0581 10.6505 45.0812 8.67365 42.6514 8.67365C40.2215 8.67365 38.2446 10.6505 38.2446 13.0804V30.8865C37.2046 31.667 36.3787 32.7172 35.8699 33.9331L32.0479 33.0712L31.6374 32.3232C34.0729 30.2641 35.6356 27.1002 35.6356 23.5577V18.7829C36.9634 18.2128 37.8958 16.8927 37.8958 15.3585V12.8956C37.8958 9.38811 36.5122 6.10803 33.9998 3.65959C31.4883 1.21193 28.1718 -0.08631 24.6604 0.00411967C21.2745 0.0913267 18.1086 1.49582 15.7459 3.95881C13.3974 6.40715 12.104 9.62492 12.104 13.0197V15.3585C12.104 16.8927 13.0364 18.2128 14.3642 18.7829V23.5576C14.3642 27.1 15.927 30.2639 18.3624 32.3231L17.9519 33.0711L12.536 34.2925C4.88252 36.0742 0.254102 42.463 0 49.9997H50C49.8594 47.2577 49.2243 44.3115 47.8371 41.9737C49.173 40.6431 50 38.8019 50 36.7673ZM41.1743 13.0804C41.1743 12.2659 41.8369 11.6033 42.6514 11.6033C43.4658 11.6033 44.1284 12.2659 44.1284 13.0804V14.7093H41.1743V13.0804ZM15.0339 15.3585V13.0197C15.0339 10.3846 16.0377 7.88693 17.8604 5.98684C19.6851 4.08459 22.1269 3.00002 24.736 2.93283C27.4505 2.86291 30.0144 3.86613 31.9553 5.75764C33.897 7.64992 34.9663 10.1849 34.9663 12.8956V15.3585C34.963 15.7774 34.5356 16.2196 33.9932 16.1538C31.9212 16.1538 30.2354 14.4681 30.2354 12.3961V11.2889H27.3058C27.3058 12.6093 26.2315 13.6834 24.9112 13.6834C23.5909 13.6834 22.5167 12.6092 22.5167 11.2889H19.587V12.3961C19.587 14.4681 17.9013 16.1538 15.8293 16.1538C15.3906 16.1538 15.0339 15.7971 15.0339 15.3585ZM17.294 23.5576V18.9219C19.2103 18.492 20.8184 17.2372 21.7243 15.5515C22.6134 16.2179 23.717 16.6131 24.9111 16.6131C26.1053 16.6131 27.2089 16.2179 28.0979 15.5515C29.0318 17.2892 30.7116 18.569 32.7061 18.9593V23.5576C32.7061 28.1327 29.2491 31.8547 25 31.8547C20.7509 31.8547 17.294 28.1327 17.294 23.5576ZM29.5639 34.6342C28.9069 37.1691 26.7412 38.0849 25 38.0849C23.2588 38.0849 21.0931 37.169 20.4361 34.6342L20.8438 33.8914C22.1212 34.4661 23.526 34.7845 25 34.7845C26.474 34.7845 27.8788 34.4661 29.1562 33.8914L29.5639 34.6342ZM38.2446 42.6508V47.0701H11.7554V42.6508H8.82568V47.0701H3.3127C4.38369 42.1666 8.18486 38.2771 13.1809 37.1503L17.8293 36.102C18.8448 39.0351 21.8054 41.0441 25 41.0146C28.1079 41.0383 31.1204 39.1258 32.1707 36.102L35.3038 36.8085C35.317 39.1983 36.4701 41.318 38.2479 42.6507H38.2446V42.6508ZM41.1743 47.0701V43.9674C41.6515 44.0648 42.1454 44.1159 42.6514 44.1159C43.6172 44.1159 44.5386 43.9278 45.3833 43.5891C45.9745 44.6666 46.4178 45.836 46.6873 47.0701H41.1743ZM42.6514 41.1863C40.2109 41.1863 38.2324 39.2077 38.2324 36.7673C38.2324 34.845 39.4604 33.2101 41.1743 32.6022V29.4065H42.6514V26.4768H41.1743V23.5227H42.6514V20.593H41.1743V17.6389H44.1284V32.6023C45.8424 33.2102 47.0703 34.845 47.0703 36.7673C47.0703 39.2077 45.0918 41.1863 42.6514 41.1863Z" fill="#344A60"/>
<path d="M25 26.9963C26.0166 26.9963 26.8691 27.6799 27.0977 28.5988L29.9199 28.0373C29.6514 26.6887 28.2783 24.1369 25 24.1369C21.7217 24.1369 20.3486 26.6887 20.0801 28.0373L22.9023 28.5988C23.1309 27.6799 23.9834 26.9963 25 26.9963Z" fill="#344A60"/>
<path d="M41.1855 35.3027H44.1152V38.2324H41.1855V35.3027Z" fill="#344A60"/>
</svg>
