<svg width="260" height="405" viewBox="0 0 260 405" fill="none" xmlns="http://www.w3.org/2000/svg">
<path d="M57.5 405C-54.2 405 -145 314.2 -145 202.5C-145 90.8 -54.1 0 57.5 0C169.2 0 260 90.8 260 202.5C260 314.2 169.2 405 57.5 405ZM57.5 1.1C-53.6 1.1 -144 91.5 -144 202.6C-144 313.7 -53.6 404.1 57.5 404.1C168.6 404.1 259 313.7 259 202.6C259 91.5 168.6 1.1 57.5 1.1Z" fill="#334A61" fill-opacity="0.1"/>
<path d="M72.5999 401.3C-14.8001 401.3 -86 330.2 -86 242.8C-86 155.4 -14.9001 84.3 72.5999 84.3C160 84.3 231.2 155.4 231.2 242.8C231.2 330.2 160.1 401.3 72.5999 401.3ZM72.5999 85.3C-14.2001 85.3 -84.9001 156 -84.9001 242.8C-84.9001 329.6 -14.2001 400.3 72.5999 400.3C159.4 400.3 230.1 329.6 230.1 242.8C230.1 156 159.5 85.3 72.5999 85.3Z" fill="#334A61" fill-opacity="0.1"/>
<path d="M87 398.6C22.7 398.6 -29.5 346.3 -29.5 282.1C-29.5 217.9 22.8 165.6 87 165.6C151.3 165.6 203.5 217.9 203.5 282.1C203.5 346.3 151.2 398.6 87 398.6ZM87 166.6C23.3 166.6 -28.5 218.4 -28.5 282.1C-28.5 345.8 23.3 397.6 87 397.6C150.7 397.6 202.5 345.8 202.5 282.1C202.5 218.4 150.7 166.6 87 166.6Z" fill="#334A61" fill-opacity="0.1"/>
</svg>
