<svg width="30" height="30" viewBox="0 0 30 30" fill="none" xmlns="http://www.w3.org/2000/svg">
<path d="M28.0124 8.75H21.2499V1.9875L28.0124 8.75ZM28.7499 11.25V22.5C28.7499 23.3208 28.5882 24.1335 28.2741 24.8918C27.96 25.6501 27.4997 26.3391 26.9193 26.9194C26.3389 27.4998 25.65 27.9602 24.8917 28.2742C24.1334 28.5883 23.3207 28.75 22.4999 28.75H11.2499C9.05182 28.7461 6.91626 28.0181 5.1735 26.6786C3.43074 25.3391 2.17788 23.4626 1.60868 21.3395C1.03948 19.2164 1.18567 16.9649 2.02462 14.9333C2.86357 12.9016 4.34855 11.2029 6.24989 10.1V7.5C6.24989 5.8424 6.90837 4.25269 8.08047 3.08058C9.25258 1.90848 10.8423 1.25 12.4999 1.25H18.7499V8.75C18.7499 9.41304 19.0133 10.0489 19.4821 10.5178C19.951 10.9866 20.5869 11.25 21.2499 11.25H28.7499ZM11.2499 26.25C12.7333 26.25 14.1833 25.8101 15.4167 24.986C16.65 24.1619 17.6113 22.9906 18.179 21.6201C18.7466 20.2497 18.8952 18.7417 18.6058 17.2868C18.3164 15.832 17.6021 14.4956 16.5532 13.4467C15.5043 12.3978 14.1679 11.6835 12.7131 11.3941C11.2582 11.1047 9.75021 11.2532 8.37976 11.8209C7.00932 12.3886 5.83798 13.3499 5.01387 14.5832C4.18976 15.8166 3.74989 17.2666 3.74989 18.75C3.74989 20.7391 4.54007 22.6468 5.94659 24.0533C7.35311 25.4598 9.26077 26.25 11.2499 26.25ZM13.1249 15.625C13.1249 15.2542 13.0149 14.8916 12.8089 14.5833C12.6029 14.275 12.31 14.0346 11.9674 13.8927C11.6248 13.7508 11.2478 13.7137 10.8841 13.786C10.5204 13.8584 10.1863 14.037 9.92407 14.2992C9.66184 14.5614 9.48326 14.8955 9.41092 15.2592C9.33857 15.6229 9.3757 15.9999 9.51762 16.3425C9.65953 16.6851 9.89985 16.978 10.2082 17.184C10.5165 17.39 10.8791 17.5 11.2499 17.5C11.7472 17.5 12.2241 17.3025 12.5757 16.9508C12.9273 16.5992 13.1249 16.1223 13.1249 15.625ZM12.4999 22.5V20C12.4999 19.6685 12.3682 19.3505 12.1338 19.1161C11.8994 18.8817 11.5814 18.75 11.2499 18.75C10.9184 18.75 10.6004 18.8817 10.366 19.1161C10.1316 19.3505 9.99989 19.6685 9.99989 20V22.5C9.99989 22.8315 10.1316 23.1495 10.366 23.3839C10.6004 23.6183 10.9184 23.75 11.2499 23.75C11.5814 23.75 11.8994 23.6183 12.1338 23.3839C12.3682 23.1495 12.4999 22.8315 12.4999 22.5Z" fill="#344A60"/>
</svg>
